<svg width="478" height="339" viewBox="0 0 478 339" fill="none" xmlns="http://www.w3.org/2000/svg">
<path d="M0 177.057L239.988 -6.33757e-06L477.653 177.057L239.988 339L0 177.057Z" fill="white"/>
<path d="M72 174.783L240.024 51L406.422 174.783L240.024 288L72 174.783Z" fill="#18191A"/>
<path d="M178.571 213.108C178.151 213.108 177.737 213.072 177.329 213C176.933 212.928 176.597 212.85 176.321 212.766V210.282C176.573 210.282 176.825 210.288 177.077 210.3C177.341 210.312 177.593 210.318 177.833 210.318C178.661 210.318 179.075 209.922 179.075 209.13V199.644H182.189V209.598C182.189 210.738 181.907 211.608 181.343 212.208C180.791 212.808 179.867 213.108 178.571 213.108ZM189.463 213.09C188.719 213.09 188.023 213.03 187.375 212.91C186.739 212.79 186.175 212.568 185.683 212.244C185.203 211.92 184.825 211.47 184.549 210.894C184.273 210.306 184.135 209.556 184.135 208.644V199.644H187.249V208.626C187.249 209.226 187.441 209.658 187.825 209.922C188.209 210.174 188.755 210.3 189.463 210.3C190.159 210.3 190.699 210.174 191.083 209.922C191.467 209.658 191.659 209.226 191.659 208.626V199.644H194.773V208.644C194.773 209.556 194.635 210.306 194.359 210.894C194.083 211.47 193.699 211.92 193.207 212.244C192.727 212.568 192.163 212.79 191.515 212.91C190.879 213.03 190.195 213.09 189.463 213.09ZM200.847 213.108C200.103 213.108 199.353 213.066 198.597 212.982C197.853 212.886 197.187 212.766 196.599 212.622V210.156C197.163 210.216 197.823 210.258 198.579 210.282C199.335 210.306 200.037 210.318 200.685 210.318C201.321 210.318 201.807 210.24 202.143 210.084C202.491 209.928 202.665 209.634 202.665 209.202V208.86C202.665 208.536 202.557 208.29 202.341 208.122C202.137 207.954 201.873 207.87 201.549 207.87H200.505C199.161 207.87 198.141 207.576 197.445 206.988C196.749 206.4 196.401 205.41 196.401 204.018V203.388C196.401 202.08 196.779 201.114 197.535 200.49C198.303 199.854 199.413 199.536 200.865 199.536C201.645 199.536 202.395 199.59 203.115 199.698C203.835 199.806 204.453 199.92 204.969 200.04V202.488C204.417 202.452 203.799 202.416 203.115 202.38C202.431 202.344 201.807 202.326 201.243 202.326C200.667 202.326 200.205 202.404 199.857 202.56C199.521 202.716 199.353 203.046 199.353 203.55V203.802C199.353 204.546 199.803 204.918 200.703 204.918H201.945C202.761 204.918 203.439 205.074 203.979 205.386C204.531 205.686 204.939 206.106 205.203 206.646C205.479 207.174 205.617 207.774 205.617 208.446V209.112C205.617 210.216 205.419 211.056 205.023 211.632C204.639 212.208 204.087 212.598 203.367 212.802C202.647 213.006 201.807 213.108 200.847 213.108ZM210.149 213V202.434H206.639V199.644H216.755V202.434H213.245V213H210.149ZM224.92 213L221.788 199.644H225.01L226.9 208.374L229.132 199.644H231.94L234.154 208.374L236.044 199.644H239.266L236.134 213H233.002L230.536 204.252L228.052 213H224.92ZM240.512 213V199.644H243.626V213H240.512ZM249.08 213C247.94 213 247.1 212.742 246.56 212.226C246.02 211.71 245.75 210.858 245.75 209.67V199.644H248.864V209.148C248.864 209.532 248.954 209.808 249.134 209.976C249.326 210.132 249.584 210.21 249.908 210.21H253.958V213H249.08ZM255.401 213V199.644H261.179C262.115 199.644 262.889 199.812 263.501 200.148C264.125 200.484 264.611 200.952 264.959 201.552C265.319 202.152 265.571 202.86 265.715 203.676C265.859 204.48 265.931 205.368 265.931 206.34C265.931 208.632 265.535 210.318 264.743 211.398C263.963 212.466 262.775 213 261.179 213H255.401ZM258.515 210.21H260.873C261.605 210.21 262.115 209.898 262.403 209.274C262.691 208.638 262.835 207.66 262.835 206.34C262.835 205.236 262.757 204.408 262.601 203.856C262.445 203.292 262.223 202.914 261.935 202.722C261.647 202.53 261.293 202.434 260.873 202.434H258.515V210.21ZM272.293 213V199.644H277.909C278.653 199.644 279.319 199.77 279.907 200.022C280.507 200.274 280.975 200.718 281.311 201.354C281.659 201.99 281.833 202.884 281.833 204.036C281.833 204.816 281.743 205.452 281.563 205.944C281.383 206.424 281.143 206.802 280.843 207.078C280.543 207.354 280.225 207.576 279.889 207.744L282.283 213H279.115L277.117 208.248C276.865 208.248 276.583 208.248 276.271 208.248C275.959 208.236 275.671 208.23 275.407 208.23V213H272.293ZM275.407 205.764H277.351C277.783 205.764 278.119 205.644 278.359 205.404C278.599 205.152 278.719 204.702 278.719 204.054C278.719 203.418 278.599 202.992 278.359 202.776C278.119 202.548 277.783 202.434 277.351 202.434H275.407V205.764ZM283.702 213V199.644H286.816V213H283.702ZM288.94 213V202.848C288.94 202.008 289.102 201.36 289.426 200.904C289.762 200.436 290.176 200.112 290.668 199.932C291.16 199.74 291.652 199.644 292.144 199.644C292.54 199.644 293.062 199.65 293.71 199.662C294.358 199.674 295.06 199.698 295.816 199.734C296.572 199.77 297.292 199.83 297.976 199.914V202.524H293.026C292.69 202.524 292.444 202.614 292.288 202.794C292.132 202.974 292.054 203.184 292.054 203.424V205.296L297.094 205.458V207.924L292.054 208.086V213H288.94ZM302.258 213V202.434H298.748V199.644H308.864V202.434H305.354V213H302.258Z" fill="#34373C"/>
<path d="M145.2 180C142.033 180 139.7 179.283 138.2 177.85C136.7 176.417 135.95 174.05 135.95 170.75V142.9H144.6V169.3C144.6 170.367 144.85 171.133 145.35 171.6C145.883 172.033 146.6 172.25 147.5 172.25H158.75V180H145.2ZM177.163 180.3C174.596 180.3 172.329 180.05 170.363 179.55C168.429 179.05 166.813 178.133 165.513 176.8C164.213 175.467 163.229 173.567 162.563 171.1C161.896 168.633 161.563 165.417 161.563 161.45C161.563 157.517 161.896 154.317 162.563 151.85C163.229 149.35 164.213 147.433 165.513 146.1C166.813 144.767 168.429 143.85 170.363 143.35C172.329 142.817 174.596 142.55 177.163 142.55C179.729 142.55 181.979 142.817 183.913 143.35C185.879 143.85 187.513 144.767 188.813 146.1C190.113 147.433 191.096 149.35 191.763 151.85C192.429 154.317 192.763 157.517 192.763 161.45C192.763 165.417 192.429 168.633 191.763 171.1C191.096 173.567 190.113 175.467 188.813 176.8C187.513 178.133 185.879 179.05 183.913 179.55C181.979 180.05 179.729 180.3 177.163 180.3ZM177.163 172.55C178.963 172.55 180.363 172.267 181.363 171.7C182.396 171.1 183.113 170.017 183.513 168.45C183.913 166.85 184.113 164.517 184.113 161.45C184.113 159.083 183.996 157.167 183.763 155.7C183.563 154.233 183.196 153.117 182.663 152.35C182.163 151.55 181.463 151.017 180.563 150.75C179.663 150.45 178.529 150.3 177.163 150.3C175.829 150.3 174.713 150.45 173.813 150.75C172.913 151.017 172.196 151.55 171.663 152.35C171.163 153.117 170.796 154.233 170.563 155.7C170.329 157.167 170.213 159.083 170.213 161.45C170.213 164.517 170.413 166.85 170.813 168.45C171.213 170.017 171.913 171.1 172.913 171.7C173.913 172.267 175.329 172.55 177.163 172.55ZM206.968 180C203.801 180 201.468 179.283 199.968 177.85C198.468 176.417 197.718 174.05 197.718 170.75V142.9H206.368V169.3C206.368 170.367 206.618 171.133 207.118 171.6C207.651 172.033 208.368 172.25 209.268 172.25H220.518V180H206.968ZM243.47 180L234.77 142.9H243.72L248.97 167.15L255.17 142.9H262.97L269.12 167.15L274.37 142.9H283.32L274.62 180H265.92L259.07 155.7L252.17 180H243.47ZM286.78 180V142.9H295.43V180H286.78ZM310.581 180C307.414 180 305.081 179.283 303.581 177.85C302.081 176.417 301.331 174.05 301.331 170.75V142.9H309.981V169.3C309.981 170.367 310.231 171.133 310.731 171.6C311.264 172.033 311.981 172.25 312.881 172.25H324.131V180H310.581ZM328.138 180V142.9H344.188C346.788 142.9 348.938 143.367 350.638 144.3C352.371 145.233 353.721 146.533 354.688 148.2C355.688 149.867 356.388 151.833 356.788 154.1C357.188 156.333 357.388 158.8 357.388 161.5C357.388 167.867 356.288 172.55 354.088 175.55C351.921 178.517 348.621 180 344.188 180H328.138ZM336.788 172.25H343.338C345.371 172.25 346.788 171.383 347.588 169.65C348.388 167.883 348.788 165.167 348.788 161.5C348.788 158.433 348.571 156.133 348.138 154.6C347.704 153.033 347.088 151.983 346.288 151.45C345.488 150.917 344.504 150.65 343.338 150.65H336.788V172.25Z" fill="#00A8E8"/>
</svg>
